# xmcd CD database file
#
# Track frame offsets:
#	150
#	31135
#	59882
#	100828
#	128187
#	155849
#	180514
#	197073
#	228658
#
# Disc length: 3453 seconds
#
# Revision: 1
# Processed by: cddbd v1.5.2PL0 Copyright (c) Steve Scherf et al.
# Submitted via: CDex 1.70beta2
#
DISCID=7d0d7b09
DTITLE=Pierre Van Dormael - Vivaces
DYEAR=2001
DGENRE=Jazz
TTITLE0=Cap Vert
TTITLE1=Sur la route de Ouakam
TTITLE2=Vivaces
TTITLE3=Estelle sous étoiles
TTITLE4=Rue 6
TTITLE5=Clic sur l'herbe
TTITLE6=Frère et soeur
TTITLE7=Soleils (nous sommes des)
TTITLE8=Otti Ier
EXTD=YEAR: 2001
EXTT0=
EXTT1=
EXTT2=
EXTT3=
EXTT4=
EXTT5=
EXTT6=
EXTT7=
EXTT8=
PLAYORDER=
